<svg width="68" height="16" viewBox="0 0 68 16" fill="none" xmlns="http://www.w3.org/2000/svg">
<path d="M0.300003 15.0002V1.00021H3.06V15.0002H0.300003Z" fill="black"/>
<path d="M12.3716 7.48022H19.3916V8.56021C19.3916 10.5602 18.7516 12.1802 17.4716 13.4202C16.1916 14.6602 14.5382 15.2802 12.5116 15.2802C10.3516 15.2802 8.55823 14.5802 7.13157 13.1802C5.71823 11.7669 5.01157 10.0469 5.01157 8.02022C5.01157 5.98022 5.71157 4.25355 7.11157 2.84021C8.5249 1.42688 10.2716 0.720215 12.3516 0.720215C13.6449 0.720215 14.8316 1.01355 15.9116 1.60022C16.9916 2.18688 17.8382 2.98022 18.4516 3.98022L16.0916 5.34022C15.7582 4.76688 15.2516 4.30022 14.5716 3.94022C13.8916 3.58021 13.1449 3.40021 12.3316 3.40021C10.9849 3.40021 9.8849 3.84022 9.03157 4.72022C8.17823 5.57355 7.75157 6.67355 7.75157 8.02022C7.75157 9.34022 8.1849 10.4335 9.05157 11.3002C9.91823 12.1535 11.0782 12.5802 12.5316 12.5802C13.5849 12.5802 14.4649 12.3469 15.1716 11.8802C15.8782 11.4135 16.3582 10.7602 16.6116 9.92022H12.3716V7.48022Z" fill="black"/>
<path d="M32.0147 15.0002H29.0347L26.2147 10.1402H24.1147V15.0002H21.3547V1.00021H26.9547C28.248 1.00021 29.348 1.45355 30.2547 2.36022C31.1614 3.26688 31.6147 4.36022 31.6147 5.64022C31.6147 6.50688 31.368 7.31355 30.8747 8.06022C30.3814 8.79355 29.728 9.34688 28.9147 9.72022L32.0147 15.0002ZM26.9547 3.58021H24.1147V7.72022H26.9547C27.4747 7.72022 27.9214 7.52022 28.2947 7.12022C28.668 6.70688 28.8547 6.21355 28.8547 5.64022C28.8547 5.06688 28.668 4.58022 28.2947 4.18022C27.9214 3.78022 27.4747 3.58021 26.9547 3.58021Z" fill="black"/>
<path d="M45.2636 13.1802C43.8503 14.5802 42.1303 15.2802 40.1036 15.2802C38.0769 15.2802 36.3569 14.5802 34.9436 13.1802C33.5436 11.7535 32.8436 10.0269 32.8436 8.00022C32.8436 5.96022 33.5436 4.24022 34.9436 2.84021C36.3569 1.42688 38.0769 0.720215 40.1036 0.720215C42.1303 0.720215 43.8503 1.42688 45.2636 2.84021C46.6769 4.24022 47.3836 5.96022 47.3836 8.00022C47.3836 10.0402 46.6769 11.7669 45.2636 13.1802ZM36.8836 11.3002C37.7369 12.1535 38.8103 12.5802 40.1036 12.5802C41.3969 12.5802 42.4703 12.1535 43.3236 11.3002C44.1903 10.4335 44.6236 9.33355 44.6236 8.00022C44.6236 6.66688 44.1903 5.56688 43.3236 4.70021C42.4569 3.83355 41.3836 3.40021 40.1036 3.40021C38.8236 3.40021 37.7503 3.83355 36.8836 4.70021C36.0169 5.56688 35.5836 6.66688 35.5836 8.00022C35.5836 9.33355 36.0169 10.4335 36.8836 11.3002Z" fill="black"/>
<path d="M54.7584 15.0002H51.6184L47.6984 1.00021H50.5984L53.2784 11.3802L56.1984 1.00021H58.5584L61.4984 11.3802L64.1784 1.00021H67.0784L63.1584 15.0002H60.0184L57.3784 5.76022L54.7584 15.0002Z" fill="black"/>
</svg>
